<svg width="597" height="336" xmlns="http://www.w3.org/2000/svg" xmlns:xlink="http://www.w3.org/1999/xlink" xml:space="preserve" overflow="hidden"><defs><linearGradient x1="185.163" y1="28.2176" x2="185.163" y2="54.3363" gradientUnits="userSpaceOnUse" spreadMethod="reflect" id="fill0"><stop offset="0" stop-color="#F7BDA4"/><stop offset="0.5" stop-color="#F5B195"/><stop offset="1" stop-color="#F8A581"/></linearGradient><linearGradient x1="48.7395" y1="28.2176" x2="48.7395" y2="54.3363" gradientUnits="userSpaceOnUse" spreadMethod="reflect" id="fill1"><stop offset="0" stop-color="#F7BDA4"/><stop offset="0.5" stop-color="#F5B195"/><stop offset="1" stop-color="#F8A581"/></linearGradient><linearGradient x1="119.167" y1="28.684" x2="119.167" y2="54.8027" gradientUnits="userSpaceOnUse" spreadMethod="reflect" id="fill2"><stop offset="0" stop-color="#F7BDA4"/><stop offset="0.5" stop-color="#F5B195"/><stop offset="1" stop-color="#F8A581"/></linearGradient><linearGradient x1="398.311" y1="9.09497" x2="398.311" y2="35.2137" gradientUnits="userSpaceOnUse" spreadMethod="reflect" id="fill3"><stop offset="0" stop-color="#F7BDA4"/><stop offset="0.5" stop-color="#F5B195"/><stop offset="1" stop-color="#F8A581"/></linearGradient><linearGradient x1="48.7395" y1="177.934" x2="48.7395" y2="204.519" gradientUnits="userSpaceOnUse" spreadMethod="reflect" id="fill4"><stop offset="0" stop-color="#F7BDA4"/><stop offset="0.5" stop-color="#F5B195"/><stop offset="1" stop-color="#F8A581"/></linearGradient><linearGradient x1="396.912" y1="51.0715" x2="396.912" y2="77.6566" gradientUnits="userSpaceOnUse" spreadMethod="reflect" id="fill5"><stop offset="0" stop-color="#F7BDA4"/><stop offset="0.5" stop-color="#F5B195"/><stop offset="1" stop-color="#F8A581"/></linearGradient><linearGradient x1="544.296" y1="51.0715" x2="544.296" y2="77.6566" gradientUnits="userSpaceOnUse" spreadMethod="reflect" id="fill6"><stop offset="0" stop-color="#F7BDA4"/><stop offset="0.5" stop-color="#F5B195"/><stop offset="1" stop-color="#F8A581"/></linearGradient><linearGradient x1="542.897" y1="18.8895" x2="542.897" y2="45.0083" gradientUnits="userSpaceOnUse" spreadMethod="reflect" id="fill7"><stop offset="0" stop-color="#F7BDA4"/><stop offset="0.5" stop-color="#F5B195"/><stop offset="1" stop-color="#F8A581"/></linearGradient><linearGradient x1="464.774" y1="30.0833" x2="464.774" y2="56.6684" gradientUnits="userSpaceOnUse" spreadMethod="reflect" id="fill8"><stop offset="0" stop-color="#F7BDA4"/><stop offset="0.5" stop-color="#F5B195"/><stop offset="1" stop-color="#F8A581"/></linearGradient><linearGradient x1="336.512" y1="119.167" x2="336.512" y2="145.286" gradientUnits="userSpaceOnUse" spreadMethod="reflect" id="fill9"><stop offset="0" stop-color="#F7BDA4"/><stop offset="0.5" stop-color="#F5B195"/><stop offset="1" stop-color="#F8A581"/></linearGradient><linearGradient x1="105.175" y1="119.167" x2="105.175" y2="145.286" gradientUnits="userSpaceOnUse" spreadMethod="reflect" id="fill10"><stop offset="0" stop-color="#F7BDA4"/><stop offset="0.5" stop-color="#F5B195"/><stop offset="1" stop-color="#F8A581"/></linearGradient><linearGradient x1="255.357" y1="28.684" x2="255.357" y2="55.2691" gradientUnits="userSpaceOnUse" spreadMethod="reflect" id="fill11"><stop offset="0" stop-color="#F7BDA4"/><stop offset="0.5" stop-color="#F5B195"/><stop offset="1" stop-color="#F8A581"/></linearGradient><linearGradient x1="175.602" y1="118.234" x2="175.602" y2="144.819" gradientUnits="userSpaceOnUse" spreadMethod="reflect" id="fill12"><stop offset="0" stop-color="#F7BDA4"/><stop offset="0.5" stop-color="#F5B195"/><stop offset="1" stop-color="#F8A581"/></linearGradient><linearGradient x1="258.622" y1="118.7" x2="258.622" y2="144.819" gradientUnits="userSpaceOnUse" spreadMethod="reflect" id="fill13"><stop offset="0" stop-color="#F7BDA4"/><stop offset="0.5" stop-color="#F5B195"/><stop offset="1" stop-color="#F8A581"/></linearGradient><linearGradient x1="419.299" y1="119.633" x2="419.299" y2="146.218" gradientUnits="userSpaceOnUse" spreadMethod="reflect" id="fill14"><stop offset="0" stop-color="#F7BDA4"/><stop offset="0.5" stop-color="#F5B195"/><stop offset="1" stop-color="#F8A581"/></linearGradient><linearGradient x1="119.167" y1="177.934" x2="119.167" y2="204.519" gradientUnits="userSpaceOnUse" spreadMethod="reflect" id="fill15"><stop offset="0" stop-color="#F7BDA4"/><stop offset="0.5" stop-color="#F5B195"/><stop offset="1" stop-color="#F8A581"/></linearGradient><linearGradient x1="265.152" y1="174.203" x2="265.152" y2="200.788" gradientUnits="userSpaceOnUse" spreadMethod="reflect" id="fill16"><stop offset="0" stop-color="#F7BDA4"/><stop offset="0.5" stop-color="#F5B195"/><stop offset="1" stop-color="#F8A581"/></linearGradient><linearGradient x1="334.18" y1="175.136" x2="334.18" y2="201.254" gradientUnits="userSpaceOnUse" spreadMethod="reflect" id="fill17"><stop offset="0" stop-color="#F7BDA4"/><stop offset="0.5" stop-color="#F5B195"/><stop offset="1" stop-color="#F8A581"/></linearGradient><linearGradient x1="401.343" y1="176.068" x2="401.343" y2="202.654" gradientUnits="userSpaceOnUse" spreadMethod="reflect" id="fill18"><stop offset="0" stop-color="#F7BDA4"/><stop offset="0.5" stop-color="#F5B195"/><stop offset="1" stop-color="#F8A581"/></linearGradient><linearGradient x1="468.505" y1="177.001" x2="468.505" y2="203.586" gradientUnits="userSpaceOnUse" spreadMethod="reflect" id="fill19"><stop offset="0" stop-color="#F7BDA4"/><stop offset="0.5" stop-color="#F5B195"/><stop offset="1" stop-color="#F8A581"/></linearGradient><linearGradient x1="541.264" y1="176.068" x2="541.264" y2="202.654" gradientUnits="userSpaceOnUse" spreadMethod="reflect" id="fill20"><stop offset="0" stop-color="#F7BDA4"/><stop offset="0.5" stop-color="#F5B195"/><stop offset="1" stop-color="#F8A581"/></linearGradient><linearGradient x1="124.764" y1="265.152" x2="124.764" y2="291.737" gradientUnits="userSpaceOnUse" spreadMethod="reflect" id="fill21"><stop offset="0" stop-color="#F7BDA4"/><stop offset="0.5" stop-color="#F5B195"/><stop offset="1" stop-color="#F8A581"/></linearGradient><linearGradient x1="204.986" y1="266.085" x2="204.986" y2="292.204" gradientUnits="userSpaceOnUse" spreadMethod="reflect" id="fill22"><stop offset="0" stop-color="#F7BDA4"/><stop offset="0.5" stop-color="#F5B195"/><stop offset="1" stop-color="#F8A581"/></linearGradient><linearGradient x1="378.022" y1="238.567" x2="378.022" y2="264.686" gradientUnits="userSpaceOnUse" spreadMethod="reflect" id="fill23"><stop offset="0" stop-color="#F7BDA4"/><stop offset="0.5" stop-color="#F5B195"/><stop offset="1" stop-color="#F8A581"/></linearGradient><linearGradient x1="372.425" y1="286.14" x2="372.425" y2="312.259" gradientUnits="userSpaceOnUse" spreadMethod="reflect" id="fill24"><stop offset="0" stop-color="#F7BDA4"/><stop offset="0.5" stop-color="#F5B195"/><stop offset="1" stop-color="#F8A581"/></linearGradient></defs><g><path d="M0 0 597 0 597 335.812 0 335.812Z" fill="#FFFFFF" transform="scale(1 1.00056)"/><path d="M156.479 28.2176 213.847 28.2176 213.847 54.3364 156.479 54.3364Z" stroke="#ED7D31" stroke-width="0.310938" stroke-miterlimit="8" fill="url(#fill0)" transform="scale(1 1.00056)"/><text font-family="DengXian,DengXian_MSFontService,sans-serif" font-weight="400" font-size="14" transform="matrix(0.466406 0 0 0.466667 161.992 39)">读取摄像头配置</text><text font-family="DengXian,DengXian_MSFontService,sans-serif" font-weight="400" font-size="14" transform="matrix(0.466406 0 0 0.466667 163.08 47)">+</text><text font-family="DengXian,DengXian_MSFontService,sans-serif" font-weight="400" font-size="14" transform="matrix(0.466406 0 0 0.466667 167.434 47)">危险区域配置</text><path d="M19.8223 28.2176 77.6567 28.2176 77.6567 54.3364 19.8223 54.3364Z" stroke="#ED7D31" stroke-width="0.310938" stroke-miterlimit="8" fill="url(#fill1)" transform="scale(1 1.00056)"/><text font-family="DengXian,DengXian_MSFontService,sans-serif" font-weight="400" font-size="14" transform="matrix(0.466406 0 0 0.466667 35.3578 43)">系统启动</text><path d="M90.2496 28.684 148.084 28.684 148.084 54.8028 90.2496 54.8028Z" stroke="#ED7D31" stroke-width="0.310938" stroke-miterlimit="8" fill="url(#fill2)" transform="scale(1 1.00056)"/><text font-family="DengXian,DengXian_MSFontService,sans-serif" font-weight="400" font-size="14" transform="matrix(0.466406 0 0 0.466667 95.3204 40)">加载</text><text font-family="DengXian,DengXian_MSFontService,sans-serif" font-weight="400" font-size="14" transform="matrix(0.466406 0 0 0.466667 108.38 40)">YOLO</text><text font-family="DengXian,DengXian_MSFontService,sans-serif" font-weight="400" font-size="14" transform="matrix(0.466406 0 0 0.466667 124.937 40)">模型</text><text font-family="DengXian,DengXian_MSFontService,sans-serif" font-weight="400" font-size="14" transform="matrix(0.466406 0 0 0.466667 137.997 40)">+</text><text font-family="DengXian,DengXian_MSFontService,sans-serif" font-weight="400" font-size="14" transform="matrix(0.466406 0 0 0.466667 102.512 48)">初始化协议</text><path d="M369.627 9.09497 426.995 9.09497 426.995 35.2137 369.627 35.2137Z" stroke="#ED7D31" stroke-width="0.310938" stroke-miterlimit="8" fill="url(#fill3)" transform="scale(1 1.00056)"/><text font-family="DengXian,DengXian_MSFontService,sans-serif" font-weight="400" font-size="14" transform="matrix(0.466406 0 0 0.466667 375.311 20)">获取流地址</text><text font-family="DengXian,DengXian_MSFontService,sans-serif" font-weight="400" font-size="14" transform="matrix(0.466406 0 0 0.466667 407.959 20)">→</text><text font-family="DengXian,DengXian_MSFontService,sans-serif" font-weight="400" font-size="14" transform="matrix(0.466406 0 0 0.466667 414.489 20)">转</text><text font-family="DengXian,DengXian_MSFontService,sans-serif" font-weight="400" font-size="14" transform="matrix(0.466406 0 0 0.466667 384.639 28)">RTSP</text><text font-family="DengXian,DengXian_MSFontService,sans-serif" font-weight="400" font-size="14" transform="matrix(0.466406 0 0 0.466667 398.631 28)">连接</text><path d="M19.8223 177.934 77.6567 177.934 77.6567 204.519 19.8223 204.519Z" stroke="#ED7D31" stroke-width="0.310938" stroke-miterlimit="8" fill="url(#fill4)" transform="scale(1 1.00056)"/><text font-family="DengXian,DengXian_MSFontService,sans-serif" font-weight="400" font-size="14" transform="matrix(0.466406 0 0 0.466667 25.5633 189)">获取危险区域多</text><text font-family="DengXian,DengXian_MSFontService,sans-serif" font-weight="400" font-size="14" transform="matrix(0.466406 0 0 0.466667 35.3578 197)">边形坐标</text><path d="M368.228 51.0715 425.596 51.0715 425.596 77.6566 368.228 77.6566Z" stroke="#ED7D31" stroke-width="0.310938" stroke-miterlimit="8" fill="url(#fill5)" transform="scale(1 1.00056)"/><text font-family="DengXian,DengXian_MSFontService,sans-serif" font-weight="400" font-size="14" transform="matrix(0.466406 0 0 0.466667 373.529 63)">FFmpeg</text><text font-family="DengXian,DengXian_MSFontService,sans-serif" font-weight="400" font-size="14" transform="matrix(0.466406 0 0 0.466667 396.072 63)">/</text><text font-family="DengXian,DengXian_MSFontService,sans-serif" font-weight="400" font-size="14" transform="matrix(0.466406 0 0 0.466667 398.56 63)">PyAV</text><text font-family="DengXian,DengXian_MSFontService,sans-serif" font-weight="400" font-size="14" transform="matrix(0.466406 0 0 0.466667 413.251 63)">建</text><text font-family="DengXian,DengXian_MSFontService,sans-serif" font-weight="400" font-size="14" transform="matrix(0.466406 0 0 0.466667 386.862 70)">立连接</text><path d="M515.612 51.0715 572.98 51.0715 572.98 77.6566 515.612 77.6566Z" stroke="#ED7D31" stroke-width="0.310938" stroke-miterlimit="8" fill="url(#fill6)" transform="scale(1 1.00056)"/><text font-family="DengXian,DengXian_MSFontService,sans-serif" font-weight="400" font-size="14" transform="matrix(0.466406 0 0 0.466667 534.17 66)">帧缓存</text><path d="M514.213 18.8895 571.581 18.8895 571.581 45.0083 514.213 45.0083Z" stroke="#ED7D31" stroke-width="0.310938" stroke-miterlimit="8" fill="url(#fill7)" transform="scale(1 1.00056)"/><text font-family="DengXian,DengXian_MSFontService,sans-serif" font-weight="400" font-size="14" transform="matrix(0.466406 0 0 0.466667 518.592 30)">断线重连</text><text font-family="DengXian,DengXian_MSFontService,sans-serif" font-weight="400" font-size="14" transform="matrix(0.466406 0 0 0.466667 544.711 30)">/</text><text font-family="DengXian,DengXian_MSFontService,sans-serif" font-weight="400" font-size="14" transform="matrix(0.466406 0 0 0.466667 547.197 30)">缓冲队</text><text font-family="DengXian,DengXian_MSFontService,sans-serif" font-weight="400" font-size="14" transform="matrix(0.466406 0 0 0.466667 532.892 38)">列补流</text><path d="M435.857 30.0833 493.691 30.0833 493.691 56.6684 435.857 56.6684Z" stroke="#ED7D31" stroke-width="0.310938" stroke-miterlimit="8" fill="url(#fill8)" transform="scale(1 1.00056)"/><text font-family="DengXian,DengXian_MSFontService,sans-serif" font-weight="400" font-size="14" transform="matrix(0.466406 0 0 0.466667 442.821 45)">视频解码</text><text font-family="DengXian,DengXian_MSFontService,sans-serif" font-weight="400" font-size="14" transform="matrix(0.466406 0 0 0.466667 468.939 45)">+</text><text font-family="DengXian,DengXian_MSFontService,sans-serif" font-weight="400" font-size="14" transform="matrix(0.466406 0 0 0.466667 473.295 45)">抽帧</text><path d="M307.595 119.167 365.429 119.167 365.429 145.286 307.595 145.286Z" stroke="#ED7D31" stroke-width="0.310938" stroke-miterlimit="8" fill="url(#fill9)" transform="scale(1 1.00056)"/><text font-family="DengXian,DengXian_MSFontService,sans-serif" font-weight="400" font-size="14" transform="matrix(0.466406 0 0 0.466667 323.268 134)">误检过滤</text><path d="M76.2574 119.167 134.092 119.167 134.092 145.286 76.2574 145.286Z" stroke="#ED7D31" stroke-width="0.310938" stroke-miterlimit="8" fill="url(#fill10)" transform="scale(1 1.00056)"/><text font-family="DengXian,DengXian_MSFontService,sans-serif" font-weight="400" font-size="14" transform="matrix(0.466406 0 0 0.466667 82.1719 134)">继续处理缓存帧</text><path d="M226.44 28.684 284.275 28.684 284.275 55.2692 226.44 55.2692Z" stroke="#ED7D31" stroke-width="0.310938" stroke-miterlimit="8" fill="url(#fill11)" transform="scale(1 1.00056)"/><text font-family="DengXian,DengXian_MSFontService,sans-serif" font-weight="400" font-size="14" transform="matrix(0.466406 0 0 0.466667 235.736 36)">视频流接入</text><text font-family="DengXian,DengXian_MSFontService,sans-serif" font-weight="400" font-size="14" transform="matrix(0.466406 0 0 0.466667 227.963 44)">（</text><text font-family="DengXian,DengXian_MSFontService,sans-serif" font-weight="400" font-size="14" transform="matrix(0.466406 0 0 0.466667 234.492 44)">实时摄像头</text><text font-family="DengXian,DengXian_MSFontService,sans-serif" font-weight="400" font-size="14" transform="matrix(0.466406 0 0 0.466667 267.14 44)">/</text><text font-family="DengXian,DengXian_MSFontService,sans-serif" font-weight="400" font-size="14" transform="matrix(0.466406 0 0 0.466667 269.628 44)">本</text><text font-family="DengXian,DengXian_MSFontService,sans-serif" font-weight="400" font-size="14" transform="matrix(0.466406 0 0 0.466667 227.729 52)">地文件</text><text font-family="DengXian,DengXian_MSFontService,sans-serif" font-weight="400" font-size="14" transform="matrix(0.466406 0 0 0.466667 247.318 52)">/</text><text font-family="DengXian,DengXian_MSFontService,sans-serif" font-weight="400" font-size="14" transform="matrix(0.466406 0 0 0.466667 249.806 52)">历史录像</text><text font-family="DengXian,DengXian_MSFontService,sans-serif" font-weight="400" font-size="14" transform="matrix(0.466406 0 0 0.466667 275.925 52)">）</text><path d="M146.685 118.234 204.519 118.234 204.519 144.819 146.685 144.819Z" stroke="#ED7D31" stroke-width="0.310938" stroke-miterlimit="8" fill="url(#fill12)" transform="scale(1 1.00056)"/><text font-family="DengXian,DengXian_MSFontService,sans-serif" font-weight="400" font-size="14" transform="matrix(0.466406 0 0 0.466667 157.433 126)">图像预处理</text><text font-family="DengXian,DengXian_MSFontService,sans-serif" font-weight="400" font-size="14" transform="matrix(0.466406 0 0 0.466667 150.085 133)">（</text><text font-family="DengXian,DengXian_MSFontService,sans-serif" font-weight="400" font-size="14" transform="matrix(0.466406 0 0 0.466667 156.615 133)">BGR</text><text font-family="DengXian,DengXian_MSFontService,sans-serif" font-weight="400" font-size="14" transform="matrix(0.466406 0 0 0.466667 168.447 133)">→</text><text font-family="DengXian,DengXian_MSFontService,sans-serif" font-weight="400" font-size="14" transform="matrix(0.466406 0 0 0.466667 174.977 133)">RGB</text><text font-family="DengXian,DengXian_MSFontService,sans-serif" font-weight="400" font-size="14" transform="matrix(0.466406 0 0 0.466667 186.808 133)">/</text><text font-family="DengXian,DengXian_MSFontService,sans-serif" font-weight="400" font-size="14" transform="matrix(0.466406 0 0 0.466667 189.276 133)">res</text><text font-family="DengXian,DengXian_MSFontService,sans-serif" font-weight="400" font-size="14" transform="matrix(0.466406 0 0 0.466667 149.426 141)">ize</text><text font-family="DengXian,DengXian_MSFontService,sans-serif" font-weight="400" font-size="14" transform="matrix(0.466406 0 0 0.466667 157.231 141)">/</text><text font-family="DengXian,DengXian_MSFontService,sans-serif" font-weight="400" font-size="14" transform="matrix(0.466406 0 0 0.466667 159.687 141)">归一化</text><text font-family="DengXian,DengXian_MSFontService,sans-serif" font-weight="400" font-size="14" transform="matrix(0.466406 0 0 0.466667 179.276 141)">/</text><text font-family="DengXian,DengXian_MSFontService,sans-serif" font-weight="400" font-size="14" transform="matrix(0.466406 0 0 0.466667 181.764 141)">降噪</text><text font-family="DengXian,DengXian_MSFontService,sans-serif" font-weight="400" font-size="14" transform="matrix(0.466406 0 0 0.466667 194.823 141)">）</text><path d="M229.705 118.7 287.539 118.7 287.539 144.819 229.705 144.819Z" stroke="#ED7D31" stroke-width="0.310938" stroke-miterlimit="8" fill="url(#fill13)" transform="scale(1 1.00056)"/><text font-family="DengXian,DengXian_MSFontService,sans-serif" font-weight="400" font-size="14" transform="matrix(0.466406 0 0 0.466667 237.162 134)">YOLO</text><text font-family="DengXian,DengXian_MSFontService,sans-serif" font-weight="400" font-size="14" transform="matrix(0.466406 0 0 0.466667 253.719 134)">模型推理</text><path d="M390.615 119.633 447.983 119.633 447.983 146.218 390.615 146.218Z" stroke="#ED7D31" stroke-width="0.310938" stroke-miterlimit="8" fill="url(#fill14)" transform="scale(1 1.00056)"/><text font-family="DengXian,DengXian_MSFontService,sans-serif" font-weight="400" font-size="14" transform="matrix(0.466406 0 0 0.466667 396.283 135)">可选</text><text font-family="DengXian,DengXian_MSFontService,sans-serif" font-weight="400" font-size="14" transform="matrix(0.466406 0 0 0.466667 409.343 135)">：</text><text font-family="DengXian,DengXian_MSFontService,sans-serif" font-weight="400" font-size="14" transform="matrix(0.466406 0 0 0.466667 415.873 135)">人员追踪</text><path d="M77.6608 41.1215 87.3532 41.3844 87.3448 41.6952 77.6524 41.4324ZM86.7782 39.658 90.4572 41.6241 86.6769 43.3879Z" fill="#4472C4" transform="scale(1 1.00056)"/><path d="M0.00870697-0.155225 5.29772 0.141449 5.28028 0.451899-0.00870697 0.155225ZM4.7726-1.60085 8.39349 0.470814 4.56362 2.12454Z" fill="#4472C4" transform="matrix(1 0 0 -1.00056 148.084 41.7711)"/><path d="M213.856 41.1218 223.38 41.6677 223.362 41.9781 213.838 41.4322ZM222.857 39.9248 226.475 42.0009 222.643 43.6499Z" fill="#4472C4" transform="scale(1 1.00056)"/><path d="M343.614 41.6296 365.745 62.2223 365.533 62.4499 343.402 41.8572ZM366.455 60.5465 367.916 64.4541 363.913 63.2783Z" fill="#4472C4" transform="scale(1 1.00056)"/><path d="M0.00410602-0.155414 10.5961 0.124426 10.5879 0.435255-0.00410602 0.155414ZM10.0197-1.60156 13.7004 0.361961 9.92111 2.12839Z" fill="#4472C4" transform="matrix(1 0 0 -1.00056 284.275 42.1288)"/><path d="M0.0935583-0.124167 23.5272 17.5328 23.3401 17.7811-0.0935583 0.124167ZM24.0597 15.7927 25.917 19.5282 21.8143 18.7728Z" fill="#4472C4" transform="matrix(1 0 0 -1.00056 343.508 41.7057)"/><path d="M297.8 41.7434 320.654 19.8223 343.508 41.7434 320.654 63.6645Z" stroke="#64310F" stroke-width="0.621873" stroke-miterlimit="8" fill="#ED7D31" fill-rule="evenodd" transform="scale(1 1.00056)"/><text font-family="DengXian,DengXian_MSFontService,sans-serif" font-weight="400" font-size="14" transform="matrix(0.466406 0 0 0.466667 313.99 40)">协议</text><text font-family="DengXian,DengXian_MSFontService,sans-serif" font-weight="400" font-size="14" transform="matrix(0.466406 0 0 0.466667 313.99 48)">类型</text><text font-family="DengXian,DengXian_MSFontService,sans-serif" font-weight="400" font-size="14" transform="matrix(0.466406 0 0 0.466667 346.443 59)">RTS</text><text font-family="DengXian,DengXian_MSFontService,sans-serif" font-weight="400" font-size="14" transform="matrix(0.466406 0 0 0.466667 356.86 59)">P</text><text font-family="DengXian,DengXian_MSFontService,sans-serif" font-weight="400" font-size="14" transform="matrix(0.466406 0 0 0.466667 345.554 32)">OnVIF</text><path d="M365.434 132.071 387.518 132.738 387.509 133.049 365.425 132.381ZM386.948 131.01 390.621 132.987 386.835 134.74Z" fill="#4472C4" transform="scale(1 1.00056)"/><path d="M287.542 131.604 304.643 131.88 304.639 132.191 287.537 131.915ZM304.049 130.16 307.75 132.086 303.989 133.891Z" fill="#4472C4" transform="scale(1 1.00056)"/><path d="M493.798 43.0305 513.317 61.8072 513.103 62.0316 493.584 43.2547ZM514.054 60.1436 515.449 64.0749 511.47 62.8328Z" fill="#4472C4" transform="scale(1 1.00056)"/><path d="M0.075756-0.135763 17.8442 9.77909 17.6927 10.0506-0.075756 0.135763ZM18.1344 7.98268 20.4837 11.43 16.3163 11.241Z" fill="#4472C4" transform="matrix(1 0 0 -1.00056 493.691 43.403)"/><path d="M0.139458-0.0687175 9.07953 18.0746 8.80062 18.212-0.139458 0.0687175ZM10.3387 16.7609 10.3144 20.9325 6.99171 18.4101Z" fill="#4472C4" transform="matrix(1 0 0 -1.00056 425.596 64.1107)"/><path d="M427.139 22.0949 434.756 40.5279 434.469 40.6466 426.851 22.2137ZM436.099 39.2999 435.8 43.4609 432.651 40.725Z" fill="#4472C4" transform="scale(1 1.00056)"/><text font-family="DengXian,DengXian_MSFontService,sans-serif" font-weight="400" font-size="14" transform="matrix(0.466406 0 0 0.466667 496.126 33)">失败</text><path d="M542.724 18.922 542.5 17.8739 542.519 17.9241 541.866 16.8843 541.889 16.9131 540.835 15.8897 540.854 15.9055 539.431 14.9066 539.445 14.9157 537.678 13.9497 537.687 13.9553 535.602 13.0303 535.612 13.034 533.242 12.1581 533.252 12.1607 530.626 11.3422 530.63 11.3441 527.776 10.5912 527.781 10.5927 524.726 9.91356 524.735 9.91514 518.135 8.81107 518.149 8.81242 511.093 8.10185 511.102 8.10255 503.821 7.85116 503.831 7.85116 500.174 7.98096 500.183 7.98021 496.555 8.35856 496.569 8.35716 492.996 8.9675 493.005 8.96554 489.521 9.79127 489.531 9.78875 486.159 10.8133 486.168 10.8102 482.94 12.0171 482.95 12.0132 479.895 13.3858 479.904 13.3812 477.05 14.9028 477.059 14.8972 474.433 16.5515 474.442 16.5445 472.073 18.3147 472.087 18.3058 470.002 20.1755 470.012 20.1642 468.244 22.1167 468.258 22.102 466.831 24.1208 466.845 24.1016 465.79 26.1701 465.802 26.1371 465.512 27.3035 465.21 27.2285 465.504 26.0449 466.569 23.9506 468.006 21.9149 469.788 19.9495 471.882 18.0698 474.261 16.2917 476.9 14.6311 479.764 13.1043 482.828 11.7276 486.065 10.5172 489.447 9.48983 492.94 8.66182 496.517 8.0498 500.155 7.67038 503.826 7.5402 511.121 7.79197 518.182 8.50356 524.791 9.60914 527.855 10.2898 530.714 11.0444 533.35 11.865 535.728 12.744 537.818 13.6737 539.599 14.647 541.045 15.658 542.118 16.7031 542.799 17.782 543.027 18.857ZM467.311 27.0075 464.774 30.3194 463.646 26.3031Z" fill="#4472C4" transform="scale(1 1.00056)"/><path d="M0.0143849 0.154802-1.03351 0.252177-1.00695 0.247355-2.04666 0.531195-2.0145 0.518425-4.03656 1.59576-4.00662 1.57496-5.89757 3.24899-5.87803 3.22822-7.57225 5.39949-7.559 5.37953-8.99091 7.94859-8.98163 7.92877-10.0856 10.7961-10.0792 10.7754-10.7897 13.8416-10.7862 13.8189-11.0376 16.9846-11.0413 16.9363-10.9468 17.3341-10.9712 17.2802-10.6896 17.6777-10.7156 17.6493-10.2499 18.0465-10.2695 18.0322-9.62266 18.4288-9.6367 18.4212-8.81167 18.817-8.82184 18.8125-7.82163 19.2074-7.83236 19.2036-5.31824 19.9896-5.32762 19.987-2.14836 20.7668-2.1546 20.7654 1.66605 21.5374 1.66158 21.5366 6.09985 22.2993 6.09649 22.2987 11.1287 23.0505 11.126 23.0502 16.7283 23.7895 16.7262 23.7893 22.8748 24.5146 22.8731 24.5145 29.5444 25.2243 29.5429 25.2242 36.713 25.9169 36.7117 25.9168 44.3569 26.5909 44.3558 26.5908 52.4525 27.2447 52.4516 27.2447 60.9756 27.8768 60.9747 27.8768 69.9026 28.4856 69.9017 28.4856 79.2098 29.0696 79.2093 29.0695 88.8737 29.6271 88.8728 29.6271 98.8697 30.1567 98.8693 30.1566 109.175 30.6567 109.175 30.6567 119.765 31.1257 119.765 31.1257 130.617 31.562 130.616 31.562 141.706 31.9642 141.705 31.9642 153.009 32.3306 153.008 32.3306 164.502 32.6598 164.501 32.6597 176.161 32.9501 176.16 32.95 199.884 33.4079 199.883 33.4079 223.986 33.6917 223.985 33.6917 248.279 33.7891 272.573 33.8865 296.678 34.1703 320.402 34.6281 332.063 34.9185 343.557 35.2476 354.861 35.6141 365.952 36.0163 376.804 36.4526 387.396 36.9217 397.702 37.4218 407.7 37.9514 417.365 38.509 426.674 39.093 435.603 39.7019 444.128 40.3341 452.226 40.9881 459.872 41.6623 467.045 42.3551 473.715 43.0652 479.867 43.7907 485.473 44.5304 490.505 45.2826 494.95 46.046 498.775 46.8193 501.96 47.601 504.488 48.3901 505.496 48.7889 506.335 49.1905 506.998 49.5976 507.487 50.0151 507.8 50.4535 507.907 50.904 507.651 54.1059 506.937 57.194 505.822 60.082 504.381 62.671 502.669 64.8631 500.748 66.5632 499.572 67.066 499.451 66.78 500.603 66.2871 500.561 66.3136 502.455 64.6397 502.436 64.6602 504.129 62.4891 504.115 62.5092 505.547 59.9402 505.538 59.9598 506.643 57.0923 506.634 57.1133 507.347 54.0472 507.343 54.0695 507.595 50.904 507.599 50.9521 507.501 50.5547 507.529 50.6083 507.245 50.211 507.273 50.2394 506.806 49.842 506.825 49.8565 506.177 49.4596 506.191 49.4675 505.37 49.0715 505.379 49.0762 504.376 48.6812 504.39 48.6849 501.876 47.899 501.886 47.9018 498.705 47.122 498.71 47.1234 494.89 46.3512 494.894 46.3521 490.454 45.5894 490.459 45.5899 485.426 44.8382 485.431 44.8385 479.829 44.0991 479.829 44.0994 473.682 43.3741 473.682 43.3742 467.013 42.6644 467.013 42.6646 459.843 41.9718 459.844 41.9719 452.199 41.2978 452.2 41.2979 444.104 40.644 444.105 40.6441 435.581 40.012 435.581 40.0121 426.654 39.4032 426.654 39.4033 417.346 38.8193 417.347 38.8194 407.682 38.2618 407.683 38.2619 397.686 37.7323 397.687 37.7323 387.381 37.2322 387.382 37.2323 376.791 36.7633 376.791 36.7633 365.939 36.327 365.94 36.327 354.85 35.9249 354.851 35.9249 343.547 35.5584 343.548 35.5584 332.054 35.2293 332.055 35.2293 320.395 34.939 320.396 34.9391 296.672 34.4812 296.674 34.4812 272.57 34.1974 272.571 34.1974 248.277 34.1 223.983 34.0027 199.878 33.7188 176.154 33.2609 164.493 32.9706 152.999 32.6414 141.695 32.2749 130.604 31.8727 119.752 31.4363 109.16 30.9673 98.8539 30.4671 88.856 29.9375 79.1907 29.3799 69.8821 28.7959 60.9532 28.1869 52.4278 27.5547 44.3302 26.9007 36.6837 26.2265 29.5122 25.5336 22.8393 24.8235 16.6887 24.098 11.0841 23.3582 6.04887 22.606 1.60669 21.8426-2.21931 21.0695-5.40639 20.2878-7.93054 19.4987-8.94119 19.0998-9.77839 18.6981-10.4424 18.291-10.9321 17.8733-11.2423 17.4353-11.3495 16.9844-11.0952 13.7827-10.3797 10.6946-9.26787 7.8068-7.82476 5.21764-6.11435 3.02566-4.19898 1.32998-2.14534 0.235818-1.07577-0.056173-0.0143849-0.154802ZM500.682 68.5034 496.555 67.8887 499.526 64.9564Z" fill="#4472C4" transform="matrix(-1 0 0 1.00056 572.812 64.1667)"/><path d="M363.116 188.041 369.606 188.818 369.57 189.126 363.079 188.349ZM369.192 187.046 372.675 189.342 368.749 190.751Z" fill="#4472C4" transform="scale(1 1.00056)"/><path d="M294.079 187.573 302.36 188.09 302.341 188.401 294.059 187.884ZM301.846 186.345 305.454 188.439 301.613 190.069Z" fill="#4472C4" transform="scale(1 1.00056)"/><path d="M0.0255718-0.153351 22.3637 3.5716 22.3125 3.8783-0.0255718 0.153351ZM22.0315 1.78245 25.4051 4.23639 21.4178 5.46288Z" fill="#4472C4" transform="matrix(1 0 0 -1.00056 211.049 192.072)"/><path d="M148.088 191.304 162.143 191.69 162.134 192.001 148.08 191.615ZM161.568 189.964 165.247 191.931 161.466 193.693Z" fill="#4472C4" transform="scale(1 1.00056)"/><path d="M77.6566 191.304 87.3481 191.304 87.3481 191.615 77.6566 191.615ZM86.7259 189.594 90.4572 191.46 86.7259 193.325Z" fill="#4472C4" transform="scale(1 1.00056)"/><path d="M204.522 131.138 226.906 131.523 226.901 131.834 204.516 131.449ZM226.313 129.803 230.012 131.733 226.249 133.534Z" fill="#4472C4" transform="scale(1 1.00056)"/><path d="M0.00942929-0.155183 9.65214 0.430735 9.6333 0.741101-0.00942929 0.155183ZM9.13517-1.31399 12.7464 0.774505 8.90883 2.41039Z" fill="#4472C4" transform="matrix(1 0 0 -1.00056 134.092 132.142)"/><path d="M90.2496 177.934 148.084 177.934 148.084 204.519 90.2496 204.519Z" stroke="#ED7D31" stroke-width="0.310938" stroke-miterlimit="8" fill="url(#fill15)" transform="scale(1 1.00056)"/><text font-family="DengXian,DengXian_MSFontService,sans-serif" font-weight="400" font-size="14" transform="matrix(0.466406 0 0 0.466667 99.2461 193)">空间关系计算</text><path d="M236.235 174.203 294.069 174.203 294.069 200.788 236.235 200.788Z" stroke="#ED7D31" stroke-width="0.310938" stroke-miterlimit="8" fill="url(#fill16)" transform="scale(1 1.00056)"/><text font-family="DengXian,DengXian_MSFontService,sans-serif" font-weight="400" font-size="14" transform="matrix(0.466406 0 0 0.466667 245.27 189)">生成入侵事件</text><path d="M305.263 175.136 363.097 175.136 363.097 201.254 305.263 201.254Z" stroke="#ED7D31" stroke-width="0.310938" stroke-miterlimit="8" fill="url(#fill17)" transform="scale(1 1.00056)"/><text font-family="DengXian,DengXian_MSFontService,sans-serif" font-weight="400" font-size="14" transform="matrix(0.466406 0 0 0.466667 314.272 182)">生成报警信息</text><text font-family="DengXian,DengXian_MSFontService,sans-serif" font-weight="400" font-size="14" transform="matrix(0.466406 0 0 0.466667 311.784 190)">（</text><text font-family="DengXian,DengXian_MSFontService,sans-serif" font-weight="400" font-size="14" transform="matrix(0.466406 0 0 0.466667 318.314 190)">时间</text><text font-family="DengXian,DengXian_MSFontService,sans-serif" font-weight="400" font-size="14" transform="matrix(0.466406 0 0 0.466667 331.373 190)">/</text><text font-family="DengXian,DengXian_MSFontService,sans-serif" font-weight="400" font-size="14" transform="matrix(0.466406 0 0 0.466667 333.861 190)">区域</text><text font-family="DengXian,DengXian_MSFontService,sans-serif" font-weight="400" font-size="14" transform="matrix(0.466406 0 0 0.466667 346.92 190)">/</text><text font-family="DengXian,DengXian_MSFontService,sans-serif" font-weight="400" font-size="14" transform="matrix(0.466406 0 0 0.466667 349.408 190)">截</text><text font-family="DengXian,DengXian_MSFontService,sans-serif" font-weight="400" font-size="14" transform="matrix(0.466406 0 0 0.466667 311.784 198)">图</text><text font-family="DengXian,DengXian_MSFontService,sans-serif" font-weight="400" font-size="14" transform="matrix(0.466406 0 0 0.466667 318.314 198)">/</text><text font-family="DengXian,DengXian_MSFontService,sans-serif" font-weight="400" font-size="14" transform="matrix(0.466406 0 0 0.466667 320.801 198)">视频</text><text font-family="DengXian,DengXian_MSFontService,sans-serif" font-weight="400" font-size="14" transform="matrix(0.466406 0 0 0.466667 333.861 198)">/</text><text font-family="DengXian,DengXian_MSFontService,sans-serif" font-weight="400" font-size="14" transform="matrix(0.466406 0 0 0.466667 336.348 198)">等级</text><text font-family="DengXian,DengXian_MSFontService,sans-serif" font-weight="400" font-size="14" transform="matrix(0.466406 0 0 0.466667 349.408 198)">）</text><path d="M372.425 176.068 430.26 176.068 430.26 202.654 372.425 202.654Z" stroke="#ED7D31" stroke-width="0.310938" stroke-miterlimit="8" fill="url(#fill18)" transform="scale(1 1.00056)"/><text font-family="DengXian,DengXian_MSFontService,sans-serif" font-weight="400" font-size="14" transform="matrix(0.466406 0 0 0.466667 384.732 191)">多渠道推送</text><path d="M439.588 177.001 497.422 177.001 497.422 203.586 439.588 203.586Z" stroke="#ED7D31" stroke-width="0.310938" stroke-miterlimit="8" fill="url(#fill19)" transform="scale(1 1.00056)"/><text font-family="DengXian,DengXian_MSFontService,sans-serif" font-weight="400" font-size="14" transform="matrix(0.466406 0 0 0.466667 448.662 192)">存储报警数据</text><path d="M512.347 176.068 570.182 176.068 570.182 202.654 512.347 202.654Z" stroke="#ED7D31" stroke-width="0.310938" stroke-miterlimit="8" fill="url(#fill20)" transform="scale(1 1.00056)"/><text font-family="DengXian,DengXian_MSFontService,sans-serif" font-weight="400" font-size="14" transform="matrix(0.466406 0 0 0.466667 518.117 183)">管理员处理</text><text font-family="DengXian,DengXian_MSFontService,sans-serif" font-weight="400" font-size="14" transform="matrix(0.466406 0 0 0.466667 550.765 183)">（</text><text font-family="DengXian,DengXian_MSFontService,sans-serif" font-weight="400" font-size="14" transform="matrix(0.466406 0 0 0.466667 557.295 183)">未</text><text font-family="DengXian,DengXian_MSFontService,sans-serif" font-weight="400" font-size="14" transform="matrix(0.466406 0 0 0.466667 518.117 191)">处理</text><text font-family="DengXian,DengXian_MSFontService,sans-serif" font-weight="400" font-size="14" transform="matrix(0.466406 0 0 0.466667 531.176 191)">→</text><text font-family="DengXian,DengXian_MSFontService,sans-serif" font-weight="400" font-size="14" transform="matrix(0.466406 0 0 0.466667 537.706 191)">处理中</text><text font-family="DengXian,DengXian_MSFontService,sans-serif" font-weight="400" font-size="14" transform="matrix(0.466406 0 0 0.466667 557.295 191)">→</text><text font-family="DengXian,DengXian_MSFontService,sans-serif" font-weight="400" font-size="14" transform="matrix(0.466406 0 0 0.466667 520.136 199)">已解决</text><text font-family="DengXian,DengXian_MSFontService,sans-serif" font-weight="400" font-size="14" transform="matrix(0.466406 0 0 0.466667 539.725 199)">/</text><text font-family="DengXian,DengXian_MSFontService,sans-serif" font-weight="400" font-size="14" transform="matrix(0.466406 0 0 0.466667 542.211 199)">误报</text><text font-family="DengXian,DengXian_MSFontService,sans-serif" font-weight="400" font-size="14" transform="matrix(0.466406 0 0 0.466667 555.271 199)">）</text><path d="M95.8465 265.152 153.681 265.152 153.681 291.737 95.8465 291.737Z" stroke="#ED7D31" stroke-width="0.310938" stroke-miterlimit="8" fill="url(#fill21)" transform="scale(1 1.00056)"/><text font-family="DengXian,DengXian_MSFontService,sans-serif" font-weight="400" font-size="14" transform="matrix(0.466406 0 0 0.466667 105.034 280)">记录处理日志</text><path d="M176.068 266.085 233.903 266.085 233.903 292.204 176.068 292.204Z" stroke="#ED7D31" stroke-width="0.310938" stroke-miterlimit="8" fill="url(#fill22)" transform="scale(1 1.00056)"/><text font-family="DengXian,DengXian_MSFontService,sans-serif" font-weight="400" font-size="14" transform="matrix(0.466406 0 0 0.466667 185.172 281)">支持历史回溯</text><path d="M349.105 238.567 406.939 238.567 406.939 264.686 349.105 264.686Z" stroke="#ED7D31" stroke-width="0.310938" stroke-miterlimit="8" fill="url(#fill23)" transform="scale(1 1.00056)"/><text font-family="DengXian,DengXian_MSFontService,sans-serif" font-weight="400" font-size="14" transform="matrix(0.466406 0 0 0.466667 358.144 254)">返回继续监控</text><path d="M343.508 286.14 401.343 286.14 401.343 312.259 343.508 312.259Z" stroke="#ED7D31" stroke-width="0.310938" stroke-miterlimit="8" fill="url(#fill24)" transform="scale(1 1.00056)"/><text font-family="DengXian,DengXian_MSFontService,sans-serif" font-weight="400" font-size="14" transform="matrix(0.466406 0 0 0.466667 365.718 301)">结束</text><path d="M164.875 191.926 187.962 170.005 211.049 191.926 187.962 213.847Z" stroke="#64310F" stroke-width="0.621873" stroke-miterlimit="8" fill="#ED7D31" fill-rule="evenodd" transform="scale(1 1.00056)"/><text font-family="DengXian,DengXian_MSFontService,sans-serif" font-weight="400" font-size="14" transform="matrix(0.466406 0 0 0.466667 181.196 182)">是否</text><text font-family="DengXian,DengXian_MSFontService,sans-serif" font-weight="400" font-size="14" transform="matrix(0.466406 0 0 0.466667 181.196 190)">满足</text><text font-family="DengXian,DengXian_MSFontService,sans-serif" font-weight="400" font-size="14" transform="matrix(0.466406 0 0 0.466667 181.196 198)">入侵</text><text font-family="DengXian,DengXian_MSFontService,sans-serif" font-weight="400" font-size="14" transform="matrix(0.466406 0 0 0.466667 181.196 205)">条件</text><path d="M0.0241117 0.153588-2.06359 0.481336-2.02296 0.469093-4.04504 1.39533-4.01563 1.3777-5.90652 2.81694-5.88558 2.79771-7.57971 4.66444-7.56436 4.64453-8.99618 6.85328-8.98476 6.83225-10.0886 9.29748-10.0804 9.27439-10.7909 11.9106-10.7862 11.8845-11.0376 14.6062-11.0521 14.5249-10.7254 15.2086-10.776 15.1486-9.80969 15.8311-9.83809 15.8152-8.25287 16.495-8.26817 16.4893-6.08455 17.1651-6.09383 17.1625-3.33254 17.8329-3.33873 17.8316-0.0203504 18.4953-0.0247717 18.4945 3.83005 19.1502 3.82672 19.1497 8.19737 19.7961 8.19476 19.7957 13.0605 20.4313 13.0584 20.4311 18.3988 21.0547 18.3971 21.0546 24.1913 21.6649 24.1898 21.6647 30.4174 22.2603 30.4161 22.2602 37.0563 22.8397 37.0552 22.8396 44.0874 23.4018 44.0864 23.4018 51.4899 23.9453 51.4889 23.9452 59.2434 24.4687 59.2425 24.4686 67.3271 24.9707 67.3262 24.9706 75.7201 25.45 75.7197 25.45 84.4023 25.9053 84.4018 25.9053 93.3526 26.3353 93.3521 26.3352 102.551 26.7384 102.55 26.7384 111.976 27.1136 111.975 27.1135 121.607 27.4593 121.607 27.4593 131.424 27.7744 131.423 27.7744 151.533 28.3069 151.532 28.3069 172.137 28.7005 172.136 28.7005 193.071 28.9446 193.069 28.9446 214.17 29.0283 235.27 29.112 256.207 29.356 276.813 29.7497 296.924 30.2823 306.742 30.5973 316.374 30.9431 325.801 31.3183 335 31.7215 343.951 32.1515 352.635 32.6068 361.03 33.0862 369.115 33.5883 376.87 34.1118 384.275 34.6554 391.308 35.2176 397.949 35.7973 404.178 36.393 409.974 37.0035 415.317 37.6273 420.184 38.2633 424.558 38.9101 428.417 39.5665 431.741 40.2312 434.51 40.9035 436.706 41.5831 438.314 42.2725 439.326 42.9878 439.689 43.7468 439.433 46.5244 438.715 49.1853 437.601 51.6727 436.156 53.9021 434.444 55.7887 432.523 57.2509 431.383 57.6665 431.277 57.3745 432.395 56.9669 432.353 56.9893 434.244 55.5499 434.223 55.5695 435.917 53.7025 435.902 53.7225 437.334 51.5136 437.323 51.5346 438.427 49.0697 438.418 49.0925 439.128 46.4564 439.124 46.4826 439.375 43.7608 439.39 43.8422 439.063 43.1584 439.114 43.2184 438.148 42.5359 438.176 42.5518 436.591 41.8721 436.606 41.8777 434.422 41.202 434.432 41.2045 431.67 40.5341 431.677 40.5355 428.358 39.8718 428.362 39.8726 424.508 39.2169 424.511 39.2174 420.141 38.5711 420.143 38.5714 415.277 37.9358 415.279 37.936 409.939 37.3124 409.941 37.3126 404.147 36.7023 404.148 36.7025 397.921 36.1069 397.921 36.107 391.282 35.5275 391.283 35.5276 384.251 34.9654 384.252 34.9655 376.848 34.4219 376.849 34.422 369.094 33.8986 369.095 33.8986 361.011 33.3966 361.012 33.3966 352.618 32.9173 352.619 32.9173 343.935 32.462 343.936 32.4621 334.985 32.0321 334.986 32.0321 325.787 31.6289 325.788 31.629 316.362 31.2538 316.363 31.2538 306.731 30.9081 306.732 30.9081 296.914 30.5931 296.915 30.5931 276.805 30.0605 276.806 30.0605 256.201 29.6669 256.203 29.6669 235.267 29.4229 235.268 29.4229 214.168 29.3392 193.067 29.2555 172.131 29.0114 151.525 28.6178 131.415 28.0852 121.596 27.7701 111.964 27.4243 102.538 27.0491 93.3382 26.6458 84.3864 26.2159 75.7029 25.7605 67.308 25.2811 59.2229 24.779 51.4675 24.2554 44.0631 23.7119 37.0299 23.1496 30.3884 22.5699 24.1595 21.9742 18.3636 21.3637 13.0213 20.7398 8.15315 20.1038 3.77957 19.457-0.079131 18.8006-3.40282 18.1358-6.17191 17.4636-8.36789 16.784-9.97568 16.0945-10.9885 15.3792-11.3511 14.6202-11.0945 11.8426-10.3774 9.18158-9.26362 6.69419-7.81841 4.46481-6.10619 2.57817-4.19022 1.11983-2.13297 0.177482-0.0241117-0.153588ZM432.436 59.1459 428.338 58.367 431.42 55.556Z" fill="#4472C4" transform="matrix(-1 0 0 1.00056 448.16 133.233)"/><text font-family="DengXian,DengXian_MSFontService,sans-serif" font-weight="400" font-size="14" transform="matrix(0.466406 0 0 0.466667 215.47 183)">满足</text><path d="M430.273 189.439 436.754 190.013 436.727 190.323 430.246 189.749ZM436.286 188.255 439.838 190.442 435.956 191.971Z" fill="#4472C4" transform="scale(1 1.00056)"/><path d="M0.00879731-0.15522 12.0048 0.52467 11.9872 0.83511-0.00879731 0.15522ZM11.4807-1.21794 15.1004 0.855837 11.2695 2.50734Z" fill="#4472C4" transform="matrix(1 0 0 -1.00056 497.422 190.556)"/><path d="M153.686 278.522 173.098 279.114 173.088 279.424 153.676 278.833ZM172.528 277.385 176.201 279.364 172.415 281.115Z" fill="#4472C4" transform="scale(1 1.00056)"/><path d="M0.00670949-0.155324 14.7109 0.479848 14.6975 0.790498-0.00670949 0.155324ZM14.1635-1.25555 17.8107 0.76936 14.0024 2.47222Z" fill="#4472C4" transform="matrix(1 0 0 -1.00056 233.903 279.137)"/><path d="M0.0188242 0.154325-1.02934 0.282177-0.995712 0.274207-2.03567 0.646882-2.00939 0.634583-3.03295 1.23576-3.01352 1.22226-4.01249 2.03562-3.99835 2.02257-4.96452 3.03178-4.95412 3.01976-5.87928 4.20851-5.86832 4.19246-7.56287 7.04329-7.55345 7.02459-8.9856 10.3977-8.97953 10.3807-10.0837 14.1455-10.0798 14.1288-10.7904 18.1548-10.7883 18.1371-11.0398 22.2937-11.0417 22.2578-10.9514 22.78-10.9664 22.7353-10.697 23.2573-10.717 23.2275-10.2716 23.749-10.2897 23.7311-9.67098 24.2518-9.69164 24.2371-7.94588 25.2752-7.96403 25.266-5.55938 26.2979-5.57108 26.2935-2.5302 27.3173-2.53825 27.3148 1.11608 28.3285 1.11022 28.327 5.35532 29.3284 5.35085 29.3274 10.164 30.3145 10.1605 30.3138 15.5189 31.2846 15.516 31.2841 21.397 32.2366 21.3947 32.2362 27.7756 33.1682 27.7735 33.1679 34.6315 34.0775 34.6298 34.0773 41.9422 34.9624 41.9407 34.9622 49.6849 35.8208 49.6835 35.8207 57.8367 36.6507 57.8353 36.6505 66.3747 37.45 66.3738 37.4499 75.2766 38.2166 75.2756 38.2165 84.5193 38.9486 84.5184 38.9486 94.0802 39.6439 94.0793 39.6438 103.936 40.3004 103.935 40.3004 114.065 40.9162 114.065 40.9161 124.444 41.4891 124.444 41.489 135.051 42.0171 135.05 42.017 145.861 42.4982 145.861 42.4982 156.854 42.9304 156.853 42.9303 168.006 43.3115 168.004 43.3115 190.695 43.9127 190.693 43.9126 213.748 44.2853 213.747 44.2853 236.983 44.4131 260.22 44.541 283.276 44.9137 305.968 45.5149 317.122 45.8961 328.116 46.3283 338.928 46.8095 349.536 47.3374 359.917 47.9106 370.047 48.5263 379.906 49.183 389.468 49.8784 398.713 50.6107 407.617 51.3774 416.158 52.1769 424.312 53.0071 432.058 53.8662 439.372 54.7514 446.232 55.6609 452.615 56.5933 458.499 57.5461 463.861 58.5177 468.678 59.5055 472.927 60.5083 476.588 61.5237 479.638 62.5511 482.059 63.5894 483.827 64.6392 484.465 65.1765 484.927 65.7213 485.216 66.2805 485.314 66.8444 485.062 71.0276 484.349 75.0709 483.239 78.8525 481.798 82.2438 480.095 85.1121 479.158 86.3145 478.174 87.3439 476.933 88.1125 476.77 87.8481 477.992 87.0897 477.964 87.1144 478.929 86.1056 478.92 86.1172 479.843 84.9288 479.834 84.9447 481.527 82.094 481.518 82.1127 482.95 78.7396 482.945 78.7564 484.046 74.9916 484.041 75.0084 484.755 70.9824 484.75 71.0001 485.002 66.8435 485.007 66.8794 484.913 66.357 484.932 66.4018 484.661 65.8799 484.68 65.9097 484.237 65.3883 484.256 65.406 483.635 64.8855 483.654 64.9 481.91 63.8617 481.928 63.8711 479.522 62.8394 479.536 62.8436 476.495 61.8198 476.504 61.8222 472.847 60.8086 472.852 60.8101 468.608 59.8087 468.612 59.8096 463.8 58.8227 463.803 58.8232 458.445 57.8526 458.447 57.853 452.567 56.9006 452.569 56.9011 446.188 55.9688 446.19 55.9692 439.332 55.0597 439.334 55.0597 432.021 54.175 432.023 54.175 424.279 53.3163 424.28 53.3163 416.127 52.4866 416.128 52.4866 407.589 51.6871 407.59 51.6871 398.687 50.9204 398.688 50.9208 389.445 50.1886 389.445 50.1886 379.884 49.4932 379.885 49.4932 370.027 48.8369 370.028 48.8369 359.898 48.2208 359.899 48.2208 349.519 47.6481 349.52 47.6481 338.913 47.1201 338.914 47.1201 328.102 46.6389 328.103 46.639 317.11 46.2068 317.111 46.2068 305.958 45.8257 305.959 45.8257 283.269 45.2245 283.27 45.2246 260.216 44.8519 260.217 44.8519 236.981 44.7241 213.744 44.5962 190.688 44.2235 167.995 43.6223 156.842 43.2411 145.848 42.8089 135.035 42.3277 124.428 41.7996 114.047 41.2266 103.916 40.6107 94.0583 39.954 84.4951 39.2586 75.2505 38.5265 66.3463 37.7596 57.8059 36.96 49.6513 36.1299 41.9057 35.2712 34.5915 34.3858 27.7316 33.476 21.3485 32.5437 15.4649 31.5908 10.1032 30.6195 5.28616 29.6315 1.03589 28.6289-2.62542 27.6133-5.67621 26.5862-8.09602 25.5477-9.86146 24.4978-10.4997 23.9607-10.9651 23.4158-11.2536 22.8566-11.3513 22.293-11.0981 18.1095-10.3845 14.0663-9.27533 10.2845-7.83553 6.89344-6.13063 4.02521-5.1946 2.8225-4.21628 1.80058-3.20065 0.973651-2.15429 0.359088-1.08424-0.0243682-0.0188242-0.154325ZM478.122 89.481 473.962 89.1372 476.732 86.0174Z" fill="#4472C4" transform="matrix(-1 0 0 1.00056 569.809 189.7)"/><path d="M251.626 278.445 274.48 256.757 297.334 278.445 274.48 300.132Z" stroke="#64310F" stroke-width="0.621873" stroke-miterlimit="8" fill="#ED7D31" fill-rule="evenodd" transform="scale(1 1.00056)"/><text font-family="DengXian,DengXian_MSFontService,sans-serif" font-weight="400" font-size="14" transform="matrix(0.466406 0 0 0.466667 267.769 273)">是否</text><text font-family="DengXian,DengXian_MSFontService,sans-serif" font-weight="400" font-size="14" transform="matrix(0.466406 0 0 0.466667 267.769 280)">继续</text><text font-family="DengXian,DengXian_MSFontService,sans-serif" font-weight="400" font-size="14" transform="matrix(0.466406 0 0 0.466667 267.769 288)">监控</text><path d="M297.397 278.07 340.78 297.479 340.653 297.763 297.271 278.353ZM340.91 295.664 343.554 298.891 339.387 299.07Z" fill="#4472C4" transform="scale(1 1.00056)"/><text font-family="DengXian,DengXian_MSFontService,sans-serif" font-weight="400" font-size="14" transform="matrix(0.466406 0 0 0.466667 321.948 294)">否</text><text font-family="DengXian,DengXian_MSFontService,sans-serif" font-weight="400" font-size="14" transform="matrix(0.466406 0 0 0.466667 317.319 271)">是</text><path d="M0.0714194-0.138094 49.0151 25.1748 48.8724 25.4509-0.0714194 0.138094ZM49.2488 23.3701 51.7058 26.7413 47.5347 26.6843Z" fill="#4472C4" transform="matrix(1 0 0 -1.00056 297.334 278.523)"/><text font-family="DengXian,DengXian_MSFontService,sans-serif" font-weight="400" font-size="14" transform="matrix(0.466406 0 0 0.466667 258.258 214)">否</text><path d="M211.053 191.771 217.53 191.943 223.961 192.444 230.29 193.254 236.467 194.349 242.441 195.707 248.163 197.308 253.58 199.128 258.644 201.147 263.304 203.342 267.509 205.693 271.209 208.177 274.353 210.774 276.89 213.461 277.917 214.837 278.772 216.226 279.449 217.628 279.942 219.042 280.243 220.464 280.343 221.878 280.444 223.282 280.441 223.261 280.737 224.663 280.732 224.644 281.218 226.04 281.211 226.023 281.882 227.41 281.874 227.397 282.721 228.773 282.713 228.762 283.731 230.125 283.72 230.111 286.243 232.785 286.229 232.772 289.36 235.357 289.348 235.348 293.036 237.824 293.025 237.818 297.22 240.162 297.21 240.157 301.861 242.348 301.852 242.345 306.907 244.36 306.9 244.357 312.309 246.175 312.302 246.172 318.016 247.771 318.008 247.769 323.975 249.126 323.968 249.124 330.137 250.218 330.13 250.217 336.451 251.025 336.444 251.025 342.866 251.525 342.858 251.525 346.224 251.615 346.216 251.925 342.846 251.836 336.416 251.334 330.087 250.525 323.91 249.43 317.936 248.071 312.214 246.471 306.796 244.65 301.733 242.632 297.073 240.436 292.868 238.086 289.168 235.602 286.024 233.005 283.487 230.318 282.46 228.942 281.605 227.553 280.928 226.15 280.435 224.736 280.134 223.315 280.033 221.9 279.933 220.496 279.936 220.517 279.639 219.116 279.645 219.135 279.159 217.739 279.165 217.756 278.495 216.368 278.503 216.382 277.656 215.005 277.664 215.017 276.646 213.654 276.657 213.668 274.134 210.994 274.148 211.007 271.017 208.421 271.029 208.43 267.341 205.954 267.352 205.961 263.157 203.616 263.166 203.621 258.516 201.43 258.525 201.434 253.469 199.419 253.477 199.422 248.067 197.604 248.075 197.606 242.361 196.008 242.368 196.01 236.402 194.653 236.409 194.654 230.239 193.56 230.247 193.562 223.925 192.754 223.933 192.754 217.51 192.253 217.518 192.254 211.045 192.081ZM345.648 249.888 349.328 251.852 345.548 253.618Z" fill="#4472C4" transform="scale(1 1.00056)"/><path d="M406.683 251.457 411.371 251.248 411.358 251.249 416.009 250.639 415.996 250.642 420.574 249.657 420.562 249.66 425.03 248.329 425.019 248.333 429.34 246.681 429.329 246.686 433.467 244.74 433.457 244.745 437.374 242.533 437.364 242.539 441.025 240.085 441.015 240.093 444.382 237.426 444.372 237.434 447.41 234.58 447.4 234.591 450.071 231.576 450.061 231.588 452.328 228.441 452.319 228.456 454.146 225.201 454.138 225.219 455.489 221.884 455.482 221.905 456.319 218.516 456.315 218.541 456.602 215.126 456.603 215.162 456.349 213.453 456.36 213.492 455.606 211.787 455.623 211.815 454.386 210.116 454.402 210.135 452.699 208.446 452.713 208.458 450.559 206.783 450.571 206.791 447.982 205.132 447.992 205.137 444.985 203.498 444.993 203.502 441.584 201.887 441.59 201.89 437.795 200.3 437.8 200.303 433.634 198.744 433.639 198.745 429.119 197.22 429.124 197.221 424.266 195.733 424.269 195.733 419.09 194.285 419.093 194.286 413.608 192.88 413.61 192.881 407.835 191.523 407.838 191.523 401.789 190.215 401.792 190.215 395.486 188.96 395.488 188.961 388.94 187.763 388.943 187.763 382.17 186.625 382.172 186.625 375.19 185.55 375.192 185.551 368.016 184.543 368.018 184.543 360.666 183.605 360.669 183.605 345.497 181.954 345.501 181.954 329.815 180.623 329.818 180.623 313.745 179.639 313.749 179.639 297.419 179.03 297.423 179.03 280.964 178.82 264.503 178.628 248.17 178.07 232.094 177.17 216.404 175.951 201.23 174.439 193.875 173.581 186.698 172.658 179.714 171.674 172.939 170.632 166.389 169.535 160.08 168.387 154.029 167.188 148.251 165.945 142.763 164.658 137.58 163.331 132.719 161.968 128.195 160.571 124.024 159.142 120.223 157.686 116.807 156.205 113.791 154.7 111.193 153.176 109.025 151.633 107.3 150.068 106.131 148.285 106.391 148.114 107.55 149.881 107.524 149.851 109.228 151.396 109.213 151.385 111.367 152.918 111.356 152.911 113.944 154.429 113.935 154.424 116.942 155.924 116.934 155.921 120.344 157.4 120.337 157.397 124.133 158.851 124.127 158.849 128.293 160.276 128.289 160.274 132.809 161.67 132.805 161.669 137.663 163.031 137.659 163.03 142.839 164.356 142.836 164.355 148.321 165.642 148.318 165.641 154.094 166.884 154.091 166.884 160.14 168.081 160.137 168.081 166.444 169.229 166.441 169.229 172.989 170.326 172.987 170.325 179.76 171.367 179.758 171.367 186.74 172.35 186.738 172.35 193.914 173.272 193.912 173.272 201.264 174.13 201.261 174.13 216.433 175.642 216.43 175.641 232.116 176.859 232.113 176.859 248.185 177.76 248.182 177.76 264.512 178.318 264.509 178.318 280.968 178.509 297.429 178.718 313.763 179.329 329.839 180.313 345.529 181.645 360.704 183.297 368.058 184.235 375.236 185.243 382.22 186.318 388.995 187.457 395.545 188.655 401.854 189.911 407.905 191.22 413.683 192.579 419.172 193.985 424.355 195.434 429.216 196.925 433.741 198.452 437.912 200.013 441.713 201.604 445.13 203.223 448.146 204.867 450.744 206.533 452.911 208.219 454.63 209.923 455.884 211.646 456.653 213.386 456.913 215.134 456.624 218.579 455.781 221.99 454.422 225.344 452.586 228.615 450.309 231.776 447.628 234.802 444.58 237.665 441.203 240.34 437.532 242.8 433.604 245.019 429.456 246.97 425.124 248.625 420.645 249.96 416.055 250.947 411.392 251.559 406.697 251.768ZM104.73 149.433 105.175 145.286 108.226 148.13Z" fill="#4472C4" transform="scale(1 1.00056)"/></g></svg>