<svg width="654" height="368" xmlns="http://www.w3.org/2000/svg" xmlns:xlink="http://www.w3.org/1999/xlink" xml:space="preserve" overflow="hidden"><defs><clipPath id="clip0"><rect x="0" y="0" width="654" height="368"/></clipPath><linearGradient x1="68.9766" y1="39.0868" x2="68.9766" y2="67.6992" gradientUnits="userSpaceOnUse" spreadMethod="reflect" id="fill1"><stop offset="0" stop-color="#F7BDA4"/><stop offset="0.5" stop-color="#F5B195"/><stop offset="1" stop-color="#F8A581"/></linearGradient><linearGradient x1="68.9766" y1="90.1805" x2="68.9766" y2="119.304" gradientUnits="userSpaceOnUse" spreadMethod="reflect" id="fill2"><stop offset="0" stop-color="#F7BDA4"/><stop offset="0.5" stop-color="#F5B195"/><stop offset="1" stop-color="#F8A581"/></linearGradient><linearGradient x1="158.902" y1="66.1664" x2="158.902" y2="94.7789" gradientUnits="userSpaceOnUse" spreadMethod="reflect" id="fill3"><stop offset="0" stop-color="#F7BDA4"/><stop offset="0.5" stop-color="#F5B195"/><stop offset="1" stop-color="#F8A581"/></linearGradient><linearGradient x1="233.754" y1="66.1664" x2="233.754" y2="94.7789" gradientUnits="userSpaceOnUse" spreadMethod="reflect" id="fill4"><stop offset="0" stop-color="#F7BDA4"/><stop offset="0.5" stop-color="#F5B195"/><stop offset="1" stop-color="#F8A581"/></linearGradient><linearGradient x1="316.781" y1="66.1664" x2="316.781" y2="94.7789" gradientUnits="userSpaceOnUse" spreadMethod="reflect" id="fill5"><stop offset="0" stop-color="#F7BDA4"/><stop offset="0.5" stop-color="#F5B195"/><stop offset="1" stop-color="#F8A581"/></linearGradient><linearGradient x1="130.289" y1="179.084" x2="130.289" y2="207.696" gradientUnits="userSpaceOnUse" spreadMethod="reflect" id="fill6"><stop offset="0" stop-color="#F7BDA4"/><stop offset="0.5" stop-color="#F5B195"/><stop offset="1" stop-color="#F8A581"/></linearGradient><linearGradient x1="427.144" y1="232.221" x2="427.144" y2="260.834" gradientUnits="userSpaceOnUse" spreadMethod="reflect" id="fill7"><stop offset="0" stop-color="#F7BDA4"/><stop offset="0.5" stop-color="#F5B195"/><stop offset="1" stop-color="#F8A581"/></linearGradient><linearGradient x1="178.317" y1="261.855" x2="178.317" y2="290.468" gradientUnits="userSpaceOnUse" spreadMethod="reflect" id="fill8"><stop offset="0" stop-color="#F7BDA4"/><stop offset="0.5" stop-color="#F5B195"/><stop offset="1" stop-color="#F8A581"/></linearGradient><linearGradient x1="209.74" y1="179.084" x2="209.74" y2="207.696" gradientUnits="userSpaceOnUse" spreadMethod="reflect" id="fill9"><stop offset="0" stop-color="#F7BDA4"/><stop offset="0.5" stop-color="#F5B195"/><stop offset="1" stop-color="#F8A581"/></linearGradient><linearGradient x1="395.466" y1="66.1664" x2="395.466" y2="94.7789" gradientUnits="userSpaceOnUse" spreadMethod="reflect" id="fill10"><stop offset="0" stop-color="#F7BDA4"/><stop offset="0.5" stop-color="#F5B195"/><stop offset="1" stop-color="#F8A581"/></linearGradient><linearGradient x1="427.144" y1="179.595" x2="427.144" y2="208.718" gradientUnits="userSpaceOnUse" spreadMethod="reflect" id="fill11"><stop offset="0" stop-color="#F7BDA4"/><stop offset="0.5" stop-color="#F5B195"/><stop offset="1" stop-color="#F8A581"/></linearGradient><linearGradient x1="471.34" y1="66.1664" x2="471.34" y2="94.7789" gradientUnits="userSpaceOnUse" spreadMethod="reflect" id="fill12"><stop offset="0" stop-color="#F7BDA4"/><stop offset="0.5" stop-color="#F5B195"/><stop offset="1" stop-color="#F8A581"/></linearGradient></defs><g clip-path="url(#clip0)"><path d="M0 0 654 0 654 367.875 0 367.875Z" fill="#FFFFFF" transform="scale(1 1.00034)"/><path d="M37.554 39.0868 100.399 39.0868 100.399 67.6993 37.554 67.6993Z" stroke="#ED7D31" stroke-width="0.340625" stroke-miterlimit="8" fill="url(#fill1)" transform="scale(1 1.00034)"/><text font-family="DengXian,DengXian_MSFontService,sans-serif" font-weight="400" font-size="14" transform="matrix(0.510938 0 0 0.511111 50.9392 56)">井下摄像头</text><path d="M37.554 90.1805 100.399 90.1805 100.399 119.304 37.554 119.304Z" stroke="#ED7D31" stroke-width="0.340625" stroke-miterlimit="8" fill="url(#fill2)" transform="scale(1 1.00034)"/><text font-family="DengXian,DengXian_MSFontService,sans-serif" font-weight="400" font-size="14" transform="matrix(0.510938 0 0 0.511111 50.9392 107)">井上摄像头</text><path d="M127.479 66.1664 190.324 66.1664 190.324 94.7789 127.479 94.7789Z" stroke="#ED7D31" stroke-width="0.340625" stroke-miterlimit="8" fill="url(#fill3)" transform="scale(1 1.00034)"/><text font-family="DengXian,DengXian_MSFontService,sans-serif" font-weight="400" font-size="14" transform="matrix(0.510938 0 0 0.511111 133.521 83)">视频流接入模块</text><path d="M202.076 66.1664 265.432 66.1664 265.432 94.7789 202.076 94.7789Z" stroke="#ED7D31" stroke-width="0.340625" stroke-miterlimit="8" fill="url(#fill4)" transform="scale(1 1.00034)"/><text font-family="DengXian,DengXian_MSFontService,sans-serif" font-weight="400" font-size="14" transform="matrix(0.510938 0 0 0.511111 212.003 83)">帧抽取</text><text font-family="DengXian,DengXian_MSFontService,sans-serif" font-weight="400" font-size="14" transform="matrix(0.510938 0 0 0.511111 233.463 83)">，</text><text font-family="DengXian,DengXian_MSFontService,sans-serif" font-weight="400" font-size="14" transform="matrix(0.510938 0 0 0.511111 240.616 83)">缓存</text><path d="M100.52 53.2734 124.745 77.8444 124.503 78.0835 100.278 53.5125ZM125.601 76.0439 127.015 80.3894 122.69 78.9133Z" fill="#4472C4" transform="scale(1 1.00034)"/><path d="M0.114431-0.126143 24.2078 21.7302 23.9789 21.9825-0.114431 0.126143ZM24.962 19.885 26.6162 24.145 22.2156 22.9124Z" fill="#4472C4" transform="matrix(1 0 0 -1.00034 100.399 104.653)"/><path d="M190.324 80.3025 198.705 80.3025 198.705 80.6428 190.324 80.6428ZM198.024 78.4289 202.112 80.4727 198.024 82.5164Z" fill="#4472C4" transform="scale(1 1.00034)"/><path d="M28.3571 13.029 111.129 13.029 111.129 132.588 28.3571 132.588Z" stroke="#172C51" stroke-width="0.681248" stroke-miterlimit="8" stroke-dasharray="5.45002 2.04375" fill="#FFFF00" fill-opacity="0.2" transform="scale(1 1.00034)"/><text font-family="DengXian,DengXian_MSFontService,sans-serif" font-weight="400" font-size="14" transform="matrix(0.510938 0 0 0.511111 50.7167 30)">现场感知层</text><path d="M0 0 153.792 0 153.792 108.319 0 108.319Z" stroke="#172C51" stroke-width="0.681248" stroke-miterlimit="8" stroke-dasharray="5.45002 2.04375" fill="#FFFF00" fill-opacity="0.2" transform="matrix(-1 0 0 1.00034 271.563 18.6556)"/><text font-family="DengXian,DengXian_MSFontService,sans-serif" font-weight="400" font-size="14" transform="matrix(0.510938 0 0 0.511111 178.855 30)">视频接入</text><text font-family="DengXian,DengXian_MSFontService,sans-serif" font-weight="400" font-size="14" transform="matrix(0.510938 0 0 0.511111 207.468 30)">层</text><path d="M285.359 66.1664 348.204 66.1664 348.204 94.7789 285.359 94.7789Z" stroke="#ED7D31" stroke-width="0.340625" stroke-miterlimit="8" fill="url(#fill5)" transform="scale(1 1.00034)"/><text font-family="DengXian,DengXian_MSFontService,sans-serif" font-weight="400" font-size="14" transform="matrix(0.510938 0 0 0.511111 295.084 83)">目标检测模块</text><path d="M98.8664 179.084 161.712 179.084 161.712 207.696 98.8664 207.696Z" stroke="#ED7D31" stroke-width="0.340625" stroke-miterlimit="8" fill="url(#fill6)" transform="scale(1 1.00034)"/><text font-family="DengXian,DengXian_MSFontService,sans-serif" font-weight="400" font-size="14" transform="matrix(0.510938 0 0 0.511111 104.885 191)">危险</text><text font-family="DengXian,DengXian_MSFontService,sans-serif" font-weight="400" font-size="14" transform="matrix(0.510938 0 0 0.511111 119.191 191)">区域管理模</text><text font-family="DengXian,DengXian_MSFontService,sans-serif" font-weight="400" font-size="14" transform="matrix(0.510938 0 0 0.511111 126.344 200)">块</text><path d="M395.721 232.221 458.566 232.221 458.566 260.834 395.721 260.834Z" stroke="#ED7D31" stroke-width="0.340625" stroke-miterlimit="8" fill="url(#fill7)" transform="scale(1 1.00034)"/><text font-family="DengXian,DengXian_MSFontService,sans-serif" font-weight="400" font-size="14" transform="matrix(0.510938 0 0 0.511111 401.823 248)">Web</text><text font-family="DengXian,DengXian_MSFontService,sans-serif" font-weight="400" font-size="14" transform="matrix(0.510938 0 0 0.511111 416.129 248)">可视化平台</text><path d="M146.895 261.855 209.74 261.855 209.74 290.468 146.895 290.468Z" stroke="#ED7D31" stroke-width="0.340625" stroke-miterlimit="8" fill="url(#fill8)" transform="scale(1 1.00034)"/><text font-family="DengXian,DengXian_MSFontService,sans-serif" font-weight="400" font-size="14" transform="matrix(0.510938 0 0 0.511111 152.913 279)">用户与权限模块</text><path d="M178.062 179.084 241.418 179.084 241.418 207.696 178.062 207.696Z" stroke="#ED7D31" stroke-width="0.340625" stroke-miterlimit="8" fill="url(#fill9)" transform="scale(1 1.00034)"/><text font-family="DengXian,DengXian_MSFontService,sans-serif" font-weight="400" font-size="14" transform="matrix(0.510938 0 0 0.511111 188.049 196)">报警管理模块</text><path d="M364.043 66.1664 426.888 66.1664 426.888 94.7789 364.043 94.7789Z" stroke="#ED7D31" stroke-width="0.340625" stroke-miterlimit="8" fill="url(#fill10)" transform="scale(1 1.00034)"/><text font-family="DengXian,DengXian_MSFontService,sans-serif" font-weight="400" font-size="14" transform="matrix(0.510938 0 0 0.511111 373.84 83)">人员追踪模块</text><path d="M395.721 179.595 458.566 179.595 458.566 208.718 395.721 208.718Z" stroke="#ED7D31" stroke-width="0.340625" stroke-miterlimit="8" fill="url(#fill11)" transform="scale(1 1.00034)"/><text font-family="DengXian,DengXian_MSFontService,sans-serif" font-weight="400" font-size="14" transform="matrix(0.510938 0 0 0.511111 412.552 196)">报警弹窗</text><path d="M439.662 66.1664 503.018 66.1664 503.018 94.7789 439.662 94.7789Z" stroke="#ED7D31" stroke-width="0.340625" stroke-miterlimit="8" fill="url(#fill12)" transform="scale(1 1.00034)"/><text font-family="DengXian,DengXian_MSFontService,sans-serif" font-weight="400" font-size="14" transform="matrix(0.510938 0 0 0.511111 449.648 83)">闯入判断模块</text><path d="M9.15314e-07-0.170312 16.556-0.170223 16.556 0.170401-9.15314e-07 0.170312ZM15.8747-2.04366 19.9622 0.000107284 15.8747 2.04384Z" fill="#4472C4" transform="matrix(1 0 0 -1.00034 265.432 80.5)"/><path d="M5.84247e-07-0.170312 12.2307-0.17027 12.2307 0.170354-5.84247e-07 0.170312ZM11.5494-2.04371 15.6369 5.36418e-05 11.5494 2.04379Z" fill="#4472C4" transform="matrix(1 0 0 -1.00034 348.204 80.5)"/><path d="M7.19906e-07-0.170312 9.28409-0.170273 9.28409 0.170352-7.19906e-07 0.170312ZM8.60286-2.04371 12.6904 5.36418e-05 8.60286 2.04379Z" fill="#4472C4" transform="matrix(1 0 0 -1.00034 426.888 80.5)"/><path d="M241.419 193.22 392.244 193.969 392.243 194.309 241.417 193.56ZM391.572 192.092 395.65 194.156 391.552 196.18Z" fill="#4472C4" transform="scale(1 1.00034)"/><path d="M161.712 193.22 174.774 193.22 174.774 193.56 161.712 193.56ZM174.093 191.346 178.18 193.39 174.093 195.434Z" fill="#4472C4" transform="scale(1 1.00034)"/><path d="M0 0 245.761 0 245.761 107.808 0 107.808Z" stroke="#172C51" stroke-width="0.681248" stroke-miterlimit="8" stroke-dasharray="5.45002 2.04375" fill="#FFFF00" fill-opacity="0.2" transform="matrix(-1 0 0 1.00034 523.966 18.1445)"/><text font-family="DengXian,DengXian_MSFontService,sans-serif" font-weight="400" font-size="14" transform="matrix(0.510938 0 0 0.511111 385.743 30)">AI</text><text font-family="DengXian,DengXian_MSFontService,sans-serif" font-weight="400" font-size="14" transform="matrix(0.510938 0 0 0.511111 392.044 30)">分析层</text><path d="M129.863 178.809 129.863 136.624 471.221 136.624 471.051 136.794 471.051 98.1853 471.391 98.1853 471.391 136.964 130.034 136.964 130.204 136.794 130.204 178.809ZM469.177 98.8664 471.221 94.7789 473.265 98.8664Z" fill="#4472C4" transform="scale(1 1.00034)"/><path d="M0 0.170312-12.2628 0.170312-12.0924 0-12.0924 66.3503-12.2628 66.1802 293.33 66.1802 293.33 95.0732 292.989 95.0732 292.989 66.3503 293.16 66.5205-12.4331 66.5205-12.4331-0.170312 0-0.170312ZM295.203 94.3916 293.16 98.4791 291.116 94.3916Z" fill="#4472C4" transform="matrix(-1 0 0 1.00034 502.899 80.5)"/><path d="M285.359 206.356C285.359 209.284 297.139 211.658 311.672 211.658 326.204 211.658 337.985 209.284 337.985 206.356L337.985 241.225C337.985 244.154 326.204 246.527 311.672 246.527 297.139 246.527 285.359 244.154 285.359 241.225Z" fill="#ED7D31" fill-rule="evenodd" transform="scale(1 1.00034)"/><path d="M285.359 206.356C285.359 203.428 297.139 201.054 311.672 201.054 326.204 201.054 337.985 203.428 337.985 206.356 337.985 209.284 326.204 211.658 311.672 211.658 297.139 211.658 285.359 209.284 285.359 206.356Z" fill="#F4B183" fill-rule="evenodd" transform="scale(1 1.00034)"/><path d="M337.985 206.356C337.985 209.284 326.204 211.658 311.672 211.658 297.139 211.658 285.359 209.284 285.359 206.356 285.359 203.428 297.139 201.054 311.672 201.054 326.204 201.054 337.985 203.428 337.985 206.356L337.985 241.225C337.985 244.154 326.204 246.527 311.672 246.527 297.139 246.527 285.359 244.154 285.359 241.225L285.359 206.356" stroke="#64310F" stroke-width="0.681248" stroke-miterlimit="8" fill="none" fill-rule="evenodd" transform="scale(1 1.00034)"/><text font-family="DengXian,DengXian_MSFontService,sans-serif" font-weight="400" font-size="14" transform="matrix(0.510938 0 0 0.511111 297.063 228)">文件</text><text font-family="DengXian,DengXian_MSFontService,sans-serif" font-weight="400" font-size="14" transform="matrix(0.510938 0 0 0.511111 311.369 228)">存储</text><path d="M285.359 259.493C285.359 262.422 297.139 264.795 311.672 264.795 326.204 264.795 337.985 262.422 337.985 259.493L337.985 294.363C337.985 297.291 326.204 299.665 311.672 299.665 297.139 299.665 285.359 297.291 285.359 294.363Z" fill="#ED7D31" fill-rule="evenodd" transform="scale(1 1.00034)"/><path d="M285.359 259.493C285.359 256.565 297.139 254.191 311.672 254.191 326.204 254.191 337.985 256.565 337.985 259.493 337.985 262.422 326.204 264.795 311.672 264.795 297.139 264.795 285.359 262.422 285.359 259.493Z" fill="#F4B183" fill-rule="evenodd" transform="scale(1 1.00034)"/><path d="M337.985 259.493C337.985 262.422 326.204 264.795 311.672 264.795 297.139 264.795 285.359 262.422 285.359 259.493 285.359 256.565 297.139 254.191 311.672 254.191 326.204 254.191 337.985 256.565 337.985 259.493L337.985 294.363C337.985 297.291 326.204 299.665 311.672 299.665 297.139 299.665 285.359 297.291 285.359 294.363L285.359 259.493" stroke="#64310F" stroke-width="0.681248" stroke-miterlimit="8" fill="none" fill-rule="evenodd" transform="scale(1 1.00034)"/><text font-family="DengXian,DengXian_MSFontService,sans-serif" font-weight="400" font-size="14" transform="matrix(0.510938 0 0 0.511111 301.917 282)">MySql</text><path d="M241.432 193.22 245.541 193.563 249.533 194.535 253.266 196.045 256.612 198.004 259.44 200.323 260.626 201.595 261.631 202.923 262.443 204.299 263.045 205.712 263.419 207.151 263.546 208.59 263.672 210.014 263.667 209.987 264.035 211.4 264.026 211.376 264.619 212.767 264.609 212.747 265.41 214.105 265.399 214.088 266.394 215.402 266.382 215.388 267.554 216.646 267.537 216.63 270.346 218.933 270.325 218.918 273.648 220.865 273.626 220.853 277.336 222.354 277.312 222.347 281.279 223.312 281.253 223.308 281.955 223.367 281.926 223.706 281.212 223.647 277.22 222.675 273.487 221.164 270.141 219.205 267.312 216.886 266.127 215.614 265.122 214.287 264.31 212.911 263.708 211.498 263.334 210.058 263.207 208.62 263.081 207.195 263.086 207.223 262.718 205.81 262.727 205.834 262.134 204.442 262.144 204.462 261.342 203.105 261.354 203.121 260.359 201.808 260.37 201.821 259.199 200.563 259.215 200.579 256.406 198.276 256.428 198.291 253.105 196.345 253.127 196.356 249.417 194.855 249.441 194.863 245.473 193.897 245.5 193.901 241.404 193.559ZM281.432 221.443 285.335 223.82 281.092 225.517Z" fill="#4472C4" transform="scale(1 1.00034)"/><path d="M0.00575781-0.170215 3.24579-0.0606156 6.48487 0.264108 9.71083 0.796766 12.9173 1.53036 16.098 2.45791 19.2485 3.57316 25.4217 6.33425 31.3931 9.76064 37.11 13.7959 42.5221 18.3845 47.5792 23.4712 52.2306 29.0009 56.4264 34.9182 60.1159 41.1681 63.2484 47.6955 65.773 54.445 67.6394 61.3621 68.7962 68.3895 69.0711 72.0596 68.7318 72.0846 68.4575 68.4222 68.459 68.437 67.3048 61.4259 67.3084 61.4423 65.4465 54.5416 65.4511 54.5569 62.9322 47.8219 62.9378 47.836 59.8119 41.3221 59.819 41.3349 56.1367 35.0975 56.1444 35.1094 51.9572 29.2037 51.9654 29.2147 47.3231 23.696 47.3326 23.7064 42.2856 18.6298 42.2963 18.6396 36.8954 14.0606 36.9074 14.0698 31.2032 10.0436 31.2166 10.0521 25.2597 6.63396 25.2749 6.64173 19.1157 3.8869 19.1284 3.89198 15.9888 2.78061 15.998 2.78356 12.8267 1.85877 12.8364 1.86129 9.63996 1.12997 9.65018 1.13199 6.43475 0.601067 6.44553 0.602492 3.21741 0.278872 3.22865 0.279624-0.00575781 0.170215ZM70.9197 71.3182 69.0231 75.4762 66.8347 71.4643Z" fill="#4472C4" transform="matrix(1.83697e-16 1.00034 1 -1.83759e-16 209.74 207.767)"/><path d="M0.0108232-0.169968 5.38778 0.172423 10.6057 1.14188 15.4859 2.64852 19.8584 4.60269 21.8068 5.72276 23.564 6.92121 25.1115 8.1889 26.4281 9.51565 27.4925 10.8918 28.2824 12.3075 28.7744 13.7527 28.9416 15.1953 29.1067 16.6198 29.0987 16.5845 29.5799 17.9979 29.5674 17.9698 30.3436 19.3609 30.3296 19.3397 31.3797 20.6974 31.3659 20.6816 32.669 21.9947 32.656 21.9829 34.1909 23.2403 34.1789 23.2314 35.9245 24.4218 35.9134 24.4149 37.8487 25.5274 37.8333 25.5196 42.1885 27.466 42.1692 27.4588 47.0302 28.9595 47.0111 28.9547 52.2091 29.9206 52.1887 29.918 54.1563 30.0433 54.1349 30.3832 52.157 30.2573 46.9391 29.2879 42.0589 27.7812 37.6864 25.827 35.738 24.7069 33.9808 23.5085 32.4334 22.2409 31.1168 20.9141 30.0524 19.538 29.2624 18.1223 28.7704 16.6771 28.6032 15.2345 28.4382 13.81 28.4461 13.8452 27.9649 12.4318 27.9774 12.4599 27.2012 11.0688 27.2152 11.0901 26.1651 9.73239 26.1789 9.74813 24.8759 8.43502 24.8888 8.44682 23.3539 7.18945 23.3659 7.19839 21.6203 6.00786 21.6314 6.01481 19.6961 4.90231 19.7116 4.91015 15.3563 2.96371 15.3756 2.97095 10.5146 1.47026 10.5337 1.47497 5.33562 0.509188 5.3559 0.511709-0.0108232 0.169968ZM53.5953 28.1303 57.5448 30.4297 53.3357 32.2096Z" fill="#4472C4" transform="matrix(1 0 0 -1.00034 337.985 277.051)"/><path d="M337.993 223.876 343.367 224.13 348.581 224.85 353.457 225.969 357.826 227.42 359.774 228.252 361.53 229.142 363.077 230.084 364.396 231.071 365.463 232.096 366.258 233.156 366.757 234.244 366.926 235.326 367.091 236.385 367.077 236.34 367.559 237.39 367.54 237.359 368.316 238.393 368.298 238.372 369.348 239.381 369.332 239.368 370.635 240.343 370.622 240.334 372.157 241.269 372.145 241.262 373.891 242.147 373.881 242.142 375.816 242.969 375.803 242.964 380.158 244.41 380.142 244.406 385.003 245.521 384.988 245.518 390.187 246.236 390.171 246.235 392.135 246.328 392.12 246.668 390.147 246.574 384.934 245.855 380.058 244.736 375.689 243.285 373.742 242.453 371.985 241.563 370.438 240.621 369.12 239.634 368.052 238.608 367.257 237.549 366.758 236.46 366.59 235.379 366.424 234.32 366.438 234.365 365.956 233.315 365.975 233.346 365.199 232.312 365.217 232.332 364.167 231.324 364.183 231.337 362.88 230.361 362.893 230.37 361.358 229.436 361.37 229.443 359.624 228.558 359.635 228.563 357.699 227.736 357.712 227.741 353.357 226.295 353.373 226.299 348.512 225.184 348.527 225.187 343.329 224.469 343.344 224.47 337.977 224.216ZM391.544 244.424 395.53 246.659 391.351 248.507Z" fill="#4472C4" transform="scale(1 1.00034)"/><path d="M209.741 275.992 281.812 276.723 281.808 277.064 209.738 276.332ZM281.15 274.842 285.216 276.928 281.108 278.93Z" fill="#4472C4" transform="scale(1 1.00034)"/><path d="M0 0 93.5016 0 93.5016 115.472 0 115.472Z" stroke="#172C51" stroke-width="0.681248" stroke-miterlimit="8" stroke-dasharray="5.45002 2.04375" fill="#FFFF00" fill-opacity="0.2" transform="matrix(-1 0 0 1.00034 474.405 160.744)"/><path d="M0 0 81.75 0 81.75 125.691 0 125.691Z" stroke="#172C51" stroke-width="0.681248" stroke-miterlimit="8" stroke-dasharray="5.45002 2.04375" fill="#FFFF00" fill-opacity="0.2" transform="matrix(-1 0 0 1.00034 351.78 182.211)"/><path d="M0 0 161.967 0 161.967 154.814 0 154.814Z" stroke="#172C51" stroke-width="0.681248" stroke-miterlimit="8" stroke-dasharray="5.45002 2.04375" fill="#FFFF00" fill-opacity="0.2" transform="matrix(-1 0 0 1.00034 248.06 153.078)"/><text font-family="DengXian,DengXian_MSFontService,sans-serif" font-weight="400" font-size="14" transform="matrix(0.510938 0 0 0.511111 412.795 172)">可视化层</text><text font-family="DengXian,DengXian_MSFontService,sans-serif" font-weight="400" font-size="14" transform="matrix(0.510938 0 0 0.511111 297.277 191)">数据存储层</text><text font-family="DengXian,DengXian_MSFontService,sans-serif" font-weight="400" font-size="14" transform="matrix(0.510938 0 0 0.511111 156.238 168)">业务管理层</text></g></svg>